<?xml version="1.0" standalone="no"?>
<!DOCTYPE svg PUBLIC "-//W3C//DTD SVG 20010904//EN"
 "http://www.w3.org/TR/2001/REC-SVG-20010904/DTD/svg10.dtd">
<svg version="1.0" xmlns="http://www.w3.org/2000/svg"
 width="1757.000000pt" height="449.000000pt" viewBox="0 0 1757.000000 449.000000"
 preserveAspectRatio="xMidYMid meet">

<g transform="translate(0.000000,449.000000) scale(0.100000,-0.100000)"
fill="#000000" stroke="none">
<path d="M3248 4225 c-97 -75 -79 -72 -438 -80 -420 -10 -790 -35 -919 -64
-25 -6 -75 -15 -111 -22 -76 -13 -216 -56 -246 -76 -21 -14 -32 -36 -114 -228
-24 -55 -59 -136 -78 -180 -19 -44 -52 -121 -72 -171 -21 -50 -42 -100 -47
-110 -6 -11 -25 -50 -44 -89 -19 -39 -41 -71 -51 -73 -9 -2 -35 8 -57 23 -38
23 -41 29 -41 68 0 23 7 67 15 97 21 76 19 143 -2 162 -18 14 -138 29 -358 44
-116 8 -169 -5 -195 -49 -25 -40 -25 -79 -2 -100 9 -8 55 -30 101 -47 46 -18
135 -56 198 -84 99 -45 119 -59 143 -94 35 -52 47 -109 27 -129 -7 -8 -39 -24
-70 -37 -123 -50 -211 -212 -266 -487 -33 -165 -41 -345 -41 -892 l0 -507 24
-11 c32 -15 36 -41 36 -234 0 -163 0 -164 27 -196 46 -55 65 -58 303 -53 219
5 276 13 342 46 28 13 60 18 129 18 81 0 96 -3 116 -22 28 -26 71 -27 133 -4
57 22 70 33 69 60 -1 17 -2 17 -6 3 -4 -16 -35 -17 -516 -15 l-512 3 -3 233
-2 232 -26 0 -25 0 4 593 c4 554 5 599 25 705 45 237 120 399 202 439 25 12
83 40 130 63 47 22 109 60 139 83 l54 42 181 418 181 417 50 19 c157 58 492
100 975 121 365 16 390 16 390 7 0 -5 -20 -30 -45 -56 l-45 -48 -193 -7 c-254
-9 -641 -41 -797 -66 -131 -21 -241 -46 -251 -58 -4 -4 -32 -65 -62 -137 -250
-581 -287 -661 -319 -693 -62 -63 -210 -153 -303 -185 -26 -9 -49 -27 -67 -53
-39 -56 -84 -187 -110 -317 -20 -105 -22 -146 -26 -649 l-3 -536 23 -4 23 -3
5 -225 5 -225 140 -3 c77 -2 254 0 393 3 l252 7 0 132 c0 72 3 148 7 170 l6
39 71 -7 c39 -4 119 -9 178 -13 l107 -6 94 61 c51 33 127 79 168 101 l74 41
797 0 798 0 57 -27 c32 -16 62 -31 68 -36 5 -4 57 -37 115 -73 l105 -66 105 6
c58 3 138 9 178 12 l72 7 0 -172 0 -171 390 0 390 0 0 209 c0 115 3 216 6 225
4 10 18 16 35 16 l29 0 0 458 c0 476 -7 609 -41 775 -32 153 -98 307 -132 307
-22 0 -174 77 -235 119 -130 90 -123 77 -308 514 l-169 397 -49 15 c-27 8 -60
15 -73 15 -29 0 -30 23 0 43 12 8 36 26 52 41 17 14 33 26 37 26 4 0 32 -9 63
-21 62 -23 56 -14 143 -219 22 -52 54 -124 71 -161 16 -36 35 -78 41 -93 5
-15 45 -107 87 -204 63 -146 84 -183 116 -212 46 -41 150 -99 242 -136 44 -18
75 -38 95 -62 46 -56 99 -174 126 -282 47 -191 54 -310 54 -887 l0 -532 -32
-6 -33 -6 0 -227 0 -227 -512 -3 -513 -2 0 166 0 166 -47 -6 c-27 -3 -86 -8
-133 -11 l-85 -6 -100 66 c-55 37 -132 85 -171 106 l-71 39 -767 0 c-708 0
-770 -1 -799 -17 -54 -29 -177 -105 -246 -151 l-66 -43 -95 6 c-52 3 -114 8
-137 12 l-43 5 0 -108 c0 -60 5 -116 10 -124 8 -13 10 -12 10 4 0 18 1 18 19
2 11 -10 22 -30 24 -45 2 -14 5 10 6 54 2 111 6 121 50 132 20 6 46 6 56 2 11
-4 44 -8 73 -8 50 -1 61 4 160 68 59 38 114 76 122 84 8 8 37 24 64 36 48 21
55 21 797 21 448 0 756 -4 767 -9 9 -6 42 -21 72 -34 31 -13 73 -40 94 -59 21
-19 60 -46 87 -59 27 -13 49 -26 49 -29 0 -3 45 -6 100 -6 63 -1 106 -6 115
-14 11 -10 15 -36 15 -113 0 -127 12 -163 59 -178 20 -6 45 -15 56 -20 12 -6
206 -9 497 -7 l478 3 32 33 33 32 5 191 c5 183 6 192 28 209 12 10 28 20 35
23 17 5 17 1138 -1 1247 -21 131 -41 234 -51 255 -5 11 -21 61 -36 110 -30 98
-69 170 -87 159 -7 -5 -8 -3 -4 5 13 20 -53 76 -128 111 l-68 31 4 43 c7 62
55 125 120 157 84 41 213 99 222 99 5 0 42 16 82 35 82 40 85 46 53 111 -18
38 -25 44 -62 49 -38 6 -278 -6 -420 -21 -86 -9 -86 -10 -56 -216 13 -86 12
-88 -10 -112 -17 -18 -19 -25 -9 -30 7 -3 3 -3 -9 -1 -12 3 -24 1 -28 -5 -12
-19 -42 -10 -73 22 -17 17 -29 35 -26 39 2 4 -8 34 -22 66 -15 32 -30 67 -34
78 -4 11 -28 65 -55 120 -54 115 -59 126 -75 178 -7 21 -16 34 -22 31 -6 -4
-8 -1 -6 7 7 18 -17 77 -58 151 -18 31 -30 58 -28 61 2 2 -2 20 -11 40 -18 44
-57 72 -126 91 -30 8 -64 18 -76 22 -13 3 -23 2 -23 -3 0 -5 -10 -9 -22 -10
-13 -1 -50 -29 -88 -67 -120 -120 -445 -428 -518 -491 -26 -22 -92 -85 -148
-140 -56 -55 -121 -116 -145 -134 -42 -34 -42 -35 -18 -42 13 -5 85 -18 159
-29 347 -54 450 -75 450 -91 0 -4 -19 -23 -42 -43 -24 -20 -51 -43 -60 -51
-10 -8 -20 -15 -22 -15 -7 0 -155 -107 -206 -148 -24 -21 -49 -37 -55 -37 -5
-1 -9 -6 -8 -13 2 -7 -5 -12 -15 -12 -22 0 -55 -33 -45 -44 4 -4 -1 -4 -12 0
-15 6 -17 4 -12 -10 6 -14 3 -17 -8 -12 -19 7 -55 -14 -55 -31 0 -7 -6 -10
-12 -8 -7 3 -33 -13 -57 -35 -24 -22 -45 -40 -48 -40 -3 0 -74 -46 -138 -90
-47 -32 -161 -121 -187 -145 -15 -14 -30 -25 -34 -25 -17 0 -103 -67 -108 -84
-2 -10 -9 -15 -15 -12 -11 7 -131 -70 -161 -102 -9 -10 -23 -21 -31 -27 -66
-42 -106 -70 -119 -81 -47 -41 -58 -49 -71 -52 -8 -2 -19 -10 -25 -18 -6 -7
-14 -14 -17 -14 -9 0 -179 -130 -198 -152 -11 -11 -19 -18 -19 -14 0 4 -27
-12 -60 -34 -33 -22 -60 -45 -60 -50 0 -6 -6 -10 -13 -10 -7 0 -28 -13 -47
-30 -19 -16 -39 -29 -43 -30 -5 0 -34 -20 -66 -45 -31 -25 -62 -45 -69 -45 -6
0 -17 -8 -24 -19 -12 -16 -61 -54 -134 -102 -13 -9 -21 -19 -17 -23 4 -4 0 -4
-10 0 -11 4 -30 -3 -52 -20 -22 -17 -35 -22 -35 -14 0 13 227 320 435 588 49
63 138 180 199 260 60 80 128 169 150 197 97 125 127 164 202 262 43 57 86
113 94 125 8 11 40 53 70 91 62 77 100 130 100 138 0 3 -21 9 -47 12 -27 3
-70 11 -98 16 -27 6 -108 19 -180 30 -266 39 -305 48 -305 68 0 4 18 32 40 62
42 56 54 72 154 199 33 41 88 111 122 155 35 44 94 119 131 167 37 47 100 127
138 177 39 51 102 131 140 179 135 169 196 252 183 252 -7 -1 -38 -21 -70 -45z
m1942 -1530 c35 -18 54 -76 44 -133 -8 -42 -105 -243 -166 -342 -77 -126 -125
-143 -453 -164 -525 -34 -543 -33 -567 19 -15 34 1 87 49 156 39 57 53 72 127
136 53 46 64 51 376 160 118 41 267 93 330 116 120 42 196 65 218 66 7 1 26
-6 42 -14z m-3959 -31 c57 -20 154 -53 214 -74 361 -125 495 -174 531 -195 56
-33 167 -154 198 -218 29 -58 32 -85 12 -113 -21 -28 -117 -29 -504 -6 -319
19 -324 20 -380 48 -74 38 -113 91 -207 279 -67 133 -75 156 -75 206 0 71 26
109 74 109 18 0 79 -16 137 -36z"/>
<path d="M6702 3637 l-22 -23 0 -1260 0 -1261 23 -21 23 -22 548 0 c313 0 588
4 644 10 452 49 746 293 892 740 59 181 84 420 70 675 -17 311 -83 540 -213
739 -174 267 -405 401 -746 436 -58 5 -343 10 -650 10 l-548 0 -21 -23z m1133
-518 c195 -28 334 -162 389 -374 49 -190 48 -592 -1 -795 -21 -90 -73 -199
-118 -248 -42 -47 -135 -97 -210 -113 -27 -6 -175 -13 -327 -16 l-278 -5 0
787 0 788 238 -7 c130 -3 268 -11 307 -17z"/>
<path d="M9332 3637 c-21 -22 -22 -31 -22 -248 0 -223 0 -226 23 -247 23 -21
31 -22 268 -22 244 0 246 0 267 23 21 22 22 31 22 242 l0 219 -27 28 -27 28
-241 0 c-240 0 -242 0 -263 -23z"/>
<path d="M14487 3632 l-27 -28 0 -216 c0 -203 1 -217 21 -242 l20 -26 248 0
247 0 27 28 27 28 0 214 0 214 -27 28 -27 28 -241 0 -241 0 -27 -28z"/>
<path d="M12780 2995 c-94 -19 -205 -64 -279 -114 -211 -144 -331 -358 -372
-666 -18 -142 -7 -387 25 -508 50 -195 121 -324 246 -447 137 -136 281 -198
475 -207 185 -8 332 38 472 148 l65 51 -4 -153 c-3 -132 -7 -160 -25 -194 -27
-51 -47 -69 -108 -97 -45 -20 -66 -23 -195 -23 -120 0 -151 3 -177 18 -42 22
-62 53 -71 108 l-7 44 -295 37 -295 36 -29 -26 c-28 -27 -28 -28 -23 -117 6
-93 30 -179 69 -244 99 -165 259 -262 510 -308 135 -25 488 -25 613 0 302 61
476 201 560 452 49 146 48 128 52 1164 l4 974 -22 23 c-22 24 -24 24 -249 24
l-226 0 -27 -28 c-23 -24 -27 -37 -27 -87 l0 -59 -37 36 c-149 143 -398 208
-623 163z m421 -484 c93 -44 169 -147 200 -271 9 -35 14 -110 14 -205 0 -168
-18 -248 -74 -337 -38 -60 -117 -122 -182 -143 -76 -25 -192 -17 -251 18 -127
74 -184 197 -195 422 -14 295 73 476 257 536 47 16 181 4 231 -20z"/>
<path d="M16515 3003 c-124 -17 -275 -83 -372 -163 l-63 -51 0 62 c0 55 -4 67
-27 91 l-27 28 -221 0 -221 0 -27 -28 -27 -28 0 -910 0 -911 23 -21 c23 -21
31 -22 268 -22 242 0 246 0 266 22 21 23 21 32 26 578 3 348 9 577 16 613 23
116 90 204 190 251 36 16 65 21 137 21 82 0 94 -3 132 -28 52 -34 88 -88 103
-152 7 -33 13 -261 16 -655 5 -597 5 -605 26 -627 20 -23 24 -23 267 -23 l247
0 22 24 22 24 -4 688 c-5 764 -4 758 -72 901 -76 162 -228 268 -443 309 -69
13 -188 16 -257 7z"/>
<path d="M9332 2947 l-22 -23 0 -915 0 -916 23 -21 c23 -21 31 -22 262 -22
l239 0 28 27 28 27 0 905 0 905 -27 28 -27 28 -241 0 c-240 0 -242 0 -263 -23z"/>
<path d="M10277 2942 l-27 -28 0 -200 c0 -196 0 -201 23 -222 23 -21 29 -22
393 -24 l369 -3 -51 -55 c-28 -30 -220 -250 -427 -488 l-377 -433 0 -193 0
-192 28 -27 28 -27 809 0 809 0 28 27 28 27 0 206 0 206 -28 27 -28 27 -433 0
-433 0 63 70 c35 39 229 261 431 493 l368 422 0 186 c0 181 -1 186 -23 207
l-23 22 -750 0 -750 0 -27 -28z"/>
<path d="M14487 2942 l-27 -28 0 -905 0 -905 28 -27 28 -27 239 0 239 0 28 27
28 27 0 905 0 905 -27 28 -27 28 -241 0 -241 0 -27 -28z"/>
</g>
</svg>
