<?xml version="1.0" encoding="UTF-8"?>
<svg width="39px" height="23px" viewBox="0 0 39 23" version="1.1" xmlns="http://www.w3.org/2000/svg" xmlns:xlink="http://www.w3.org/1999/xlink">
    <title>Group 7</title>
    <g id="Page-1" stroke="none" stroke-width="1" fill="none" fill-rule="evenodd">
        <g id="Group-7">
            <rect id="Rectangle" fill="#0072CE" x="0" y="0" width="39" height="23" rx="3.5"></rect>
            <path d="M4.42199219,9.05893727 L5.51763672,9.05893727 L4.96914062,7.74125381 L4.42199219,9.05893727 Z M23.4670703,9.05893727 L24.5748437,9.05893727 L24.0193398,7.73984482 L23.4670703,9.05893727 Z M28.0240352,6.57912237 L28.0240352,7.33067536 L27.5639453,6.57912237 L25.3912539,6.57912237 L25.3912539,7.3861894 L25.0408633,6.57912237 L21.9975859,6.57912237 C21.4922922,6.55125958 20.9909282,6.68557399 20.5607148,6.96405727 L20.5607148,6.57912237 L18.5265625,6.57912237 L18.5265625,6.79892414 C18.1379828,6.62122858 17.7136834,6.54576191 17.2907617,6.57912237 L9.87029687,6.57912237 L9.28433594,7.94358416 L8.646625,6.57912237 L6.33997656,6.57912237 L6.33997656,7.39858847 L5.98311719,6.57912237 L3.98858594,6.57912237 L2.03125,11.0878767 L4.23008594,11.0878767 L4.54166406,10.34985 L5.40039062,10.34985 L5.70873437,11.0878767 L8.35580078,11.0878767 L8.35580078,10.7229494 L8.35930469,10.7308397 L8.51967578,11.0878767 L10.0153047,11.0878767 L10.1754062,10.7314033 L10.1791797,10.7229494 L10.1791797,11.0892857 L16.8554687,11.0892857 L16.8554687,9.88347572 C16.8554687,9.88347572 17.1851055,9.88347572 17.2136758,9.8851665 C17.2136758,9.92743608 17.2209531,11.0870313 17.2209531,11.0870313 L20.5609844,11.0870313 L20.5609844,10.7215404 C20.9791148,10.97429 21.4560077,11.1010847 21.9388281,11.0878767 L23.2864844,11.0878767 L23.5894375,10.34985 L24.4422344,10.34985 L24.7556992,11.0878767 L27.4027656,11.0878767 L27.4027656,10.15541 L27.9736328,11.0878767 L30.0625,11.0878767 L30.0625,6.57912237 L28.0240352,6.57912237 Z M10.7864336,10.4882124 L10.7834687,7.89567864 L9.61963281,10.4882124 L8.91480859,10.4882124 L7.74800781,7.89426966 L7.74800781,10.4884942 L6.11572656,10.4884942 L5.80738281,9.75018567 L4.13628906,9.75018567 L3.82471094,10.4884942 L2.95304687,10.4884942 L4.3901875,7.1790685 L5.58259375,7.1790685 L6.94776953,10.3120892 L6.94776953,7.1790685 L8.25742187,7.1790685 L9.30859375,9.42527356 L10.2735156,7.18047748 L11.5996094,7.18047748 L11.5996094,10.4882124 L10.7864336,10.4882124 Z M12.2168359,10.4882124 L12.2168359,7.1790685 L14.8878906,7.1790685 L14.8878906,7.86806252 L13.0092578,7.86806252 L13.0092578,8.46462708 L14.8420703,8.46462708 L14.8420703,9.14347641 L13.0092578,9.14347641 L13.0092578,9.80429072 L14.8878906,9.80429072 L14.8878906,10.488776 L12.2168359,10.488776 L12.2168359,10.4882124 Z M17.8230859,10.4882124 L17.8203906,10.0708708 C17.8533455,9.84702838 17.8083962,9.61825304 17.6937109,9.42611895 C17.5227689,9.30360462 17.3138126,9.25326695 17.1088281,9.28522038 L16.2463281,9.28522038 L16.2463281,10.488776 L15.4447422,10.488776 L15.4447422,7.1790685 L17.2907617,7.1790685 C17.6223069,7.1460871 17.9564703,7.20053699 18.2626914,7.33743849 C18.5269628,7.47373798 18.6871116,7.76261384 18.668875,8.07011108 C18.6740599,8.45859315 18.4486507,8.80984954 18.1028594,8.95213615 C18.2562384,9.00728799 18.3931851,9.10335583 18.5001484,9.23083353 C18.6113522,9.41062387 18.658312,9.62567246 18.6327578,9.83810638 L18.6327578,10.4882124 L17.8241641,10.4882124 L17.8230859,10.4882124 Z M19.9523828,10.4882124 L19.1343555,10.4882124 L19.1343555,7.1790685 L19.9531914,7.1790685 L19.9531914,10.4882124 L19.9523828,10.4882124 Z M29.4528203,10.4882124 L28.3164766,10.4882124 L26.7952422,8.00445234 L26.7952422,10.4882124 L25.1608047,10.4882124 L24.848418,9.74990387 L23.1810977,9.74990387 L22.8781445,10.4882124 L21.9388281,10.4882124 C21.5215444,10.5148149 21.1088695,10.3849188 20.7749922,10.1218761 C20.4630656,9.78605908 20.3065093,9.32485118 20.346168,8.8585795 C20.3102482,8.38308129 20.4673572,7.91372677 20.7790352,7.56541239 C21.0383242,7.30136846 21.4447773,7.17963209 21.9978555,7.17963209 L22.7749141,7.17963209 L22.7749141,7.88863371 L22.0140273,7.88863371 C21.7908566,7.86108129 21.5668619,7.93263597 21.3965312,8.08589172 C21.2301234,8.29456727 21.1474398,8.56249069 21.1658125,8.83349955 C21.1422438,9.11248174 21.2211742,9.39037782 21.3865586,9.61069608 C21.5461614,9.73861763 21.7457434,9.79952841 21.9461055,9.78146515 L22.3064688,9.78146515 L23.4385,7.1790685 L24.6408789,7.1790685 L25.9998555,10.3089894 L25.9998555,7.17935029 L27.2216406,7.17935029 L28.6323672,9.48416916 L28.6323672,7.17935029 L29.4544375,7.17935029 L29.4544375,10.4882124 L29.4528203,10.4882124 Z M22.2072812,8.48745265 L21.9051367,9.18236442 C21.876339,9.18137323 21.8476258,9.17855003 21.8191562,9.1739105 C21.7828867,9.0646271 21.7673235,8.94900403 21.7733359,8.83349955 C21.7671375,8.71898554 21.7881576,8.60464875 21.8345195,8.50069712 L21.8358672,8.50069712 C21.8945196,8.48874515 21.9543568,8.48439148 22.0140273,8.48773445 L22.2078203,8.48773445 L22.2072812,8.48745265 Z M17.6160859,7.92780352 C17.4950893,7.87841054 17.3650431,7.85799662 17.2355078,7.86806252 L16.2474062,7.86806252 L16.2474062,8.60298948 L17.2223008,8.60298948 C17.3580625,8.61678867 17.4949176,8.59328148 17.6193203,8.53479457 C17.7282636,8.47251009 17.7928069,8.34985799 17.7848125,8.22030896 C17.7920671,8.09564996 17.7249293,7.97925948 17.6160859,7.92780352 Z M36.6999337,13.8197283 L36.7018073,13.890224 L36.7018073,11.9163437 L34.6692318,11.9163437 C34.3646432,11.9094648 34.0625728,11.975813 33.7859689,12.110348 L33.7859689,11.9163437 L31.6431194,11.9163437 C31.3291394,11.8995655 31.0175352,11.9817348 30.7480796,12.1523634 L30.7480796,11.9163437 L26.9859147,11.9163437 L26.9859147,12.126421 C26.6146269,11.9610251 26.2118527,11.8890959 25.809569,11.9163437 L23.4311827,11.9163437 L23.4311827,12.14193 C23.0909176,11.9802741 22.7199611,11.9030954 22.3469105,11.9163437 L19.6117395,11.9163437 L18.8890698,12.7118175 L18.1888832,11.9163437 L14.21875,11.9163437 L14.21875,16.4280701 L18.1364227,16.4280701 L18.8636426,15.6247008 L19.5635616,16.4280701 L21.9226766,16.4280701 L21.9226766,15.3170575 L22.3032827,15.3170575 C22.6917083,15.3313076 23.077927,15.2498132 23.4311827,15.0790639 L23.4311827,16.4280701 L25.3850674,16.4280701 L25.3850674,15.2183635 C25.3850674,15.2183635 25.706254,15.2183635 25.7330195,15.2203374 C25.7330195,15.2654546 25.7330195,16.4280701 25.7330195,16.4280701 L32.1356054,16.4280701 C32.4529007,16.4347799 32.768227,16.3740738 33.0627638,16.2495749 L33.0627638,16.4280701 L35.1611825,16.4280701 C36.2920268,16.4280701 36.9670538,15.8133474 36.9670538,14.7838278 C36.9827844,14.4400419 36.8887402,14.1006142 36.6999337,13.8197283 L36.6999337,13.8197283 Z M22.3032827,14.7167159 L21.3354406,14.7167159 L21.3354406,15.8277285 L19.8274698,15.8277285 L18.8722075,14.731379 L17.8794735,15.8274465 L14.807592,15.8274465 L14.807592,12.5155574 L17.9265809,12.5155574 L18.8810402,13.6011915 L19.8678858,12.5155574 L22.3469105,12.5155574 C22.962518,12.5155574 23.6544073,12.6895408 23.6544073,13.6068312 C23.6544073,14.5241216 22.9815216,14.7167159 22.3032827,14.7167159 Z M26.3218615,15.8277285 L26.3218615,15.4129317 C26.3548798,15.1878883 26.3103508,14.9578264 26.1963311,14.764371 C26.0323919,14.6381803 25.8277928,14.5852806 25.627028,14.6171759 L24.7972961,14.6171759 L24.7972961,15.8268826 L24.0186864,15.8268826 L24.0186864,12.5155574 L25.8098366,12.5155574 C26.1283553,12.4873394 26.4486176,12.540945 26.7431512,12.6717759 C27.0033919,12.8111958 27.1601156,13.1001989 27.1419578,13.4071873 C27.1500999,13.7927552 26.9311758,14.1434896 26.5919258,14.2883839 C26.7407486,14.3419065 26.8723972,14.4382121 26.9719966,14.566419 C27.0784489,14.7468529 27.1237354,14.9599609 27.1004712,15.1709903 L27.1004712,15.8274465 L26.3215938,15.8274465 L26.3218615,15.8277285 Z M27.5720801,15.8277285 L27.5720801,12.5155574 L30.1613788,12.5155574 L30.1613788,13.2004938 L28.3445337,13.2004938 L28.3445337,13.8028093 L30.1174833,13.8028093 L30.1174833,14.4795683 L28.3445337,14.4795683 L28.3445337,15.1385623 L30.1613788,15.1416641 L30.1613788,15.8274465 L27.5720801,15.8274465 L27.5720801,15.8277285 Z M30.6262963,15.8277285 L30.6262963,15.1174136 L32.1313229,15.1174136 C32.242888,15.1311204 32.3554035,15.1019864 32.4482269,15.0353566 C32.5065326,14.9803667 32.5398274,14.9018023 32.5397651,14.8193577 C32.5410809,14.735025 32.5062802,14.6545516 32.4450151,14.600257 C32.3639799,14.5423641 32.2662109,14.516314 32.1687947,14.5266594 C31.4434484,14.5015629 30.5360965,14.549782 30.5360965,13.5016516 C30.5360965,13.0222807 30.8305174,12.5147114 31.6452606,12.5147114 L33.2006064,12.5147114 L33.2006064,13.2196687 L31.7769471,13.2196687 C31.6699357,13.2064518 31.5616182,13.2272715 31.4659315,13.2794491 C31.3868953,13.3287146 31.34164,13.4213302 31.3495013,13.5177246 C31.3476959,13.6305731 31.4168462,13.7311179 31.5191949,13.7644596 C31.6171617,13.7945197 31.7191938,13.8071941 31.8211102,13.8019634 L32.2389204,13.8135247 C32.5553949,13.7833821 32.8711941,13.8783685 33.1248599,14.0799985 C33.2939366,14.268086 33.3783323,14.5235324 33.3566495,14.781572 C33.3566495,15.4941428 32.9203711,15.8266006 32.1380143,15.8266006 L30.6260287,15.8266006 L30.6262963,15.8277285 Z M35.1627885,15.8277285 L33.6518735,15.8277285 L33.6518735,15.1174136 L35.1566324,15.1174136 C35.2682021,15.1311976 35.3807429,15.102057 35.4735364,15.0353566 C35.5318421,14.9803667 35.5651369,14.9018023 35.5650746,14.8193577 C35.5664566,14.7350715 35.5317576,14.6546061 35.4705922,14.600257 C35.3894368,14.5424104 35.2916007,14.5163677 35.1941041,14.5266594 C34.4687579,14.5015629 33.5600677,14.549782 33.5600677,13.5016516 C33.5600677,13.0222807 33.8558269,12.5147114 34.6692318,12.5147114 L36.2245776,12.5147114 L36.2245776,13.2196687 L34.8014536,13.2196687 C34.6944438,13.2065039 34.5861408,13.2273209 34.490438,13.2794491 C34.4114019,13.3287146 34.3661465,13.4213302 34.3740079,13.5177246 C34.3722378,13.6306504 34.4415143,13.7312201 34.5439691,13.7644596 C34.6419279,13.7945611 34.7439666,13.8072363 34.8458844,13.8019634 L35.2634269,13.8135247 C35.5799112,13.7832725 35.8957472,13.87827 36.1493664,14.0799985 C36.3187521,14.2679019 36.4032816,14.523458 36.3814237,14.781572 C36.3806207,15.4949887 35.9451453,15.8274465 35.1627885,15.8274465 L35.1627885,15.8277285 Z M26.1235288,13.2616841 C26.006419,13.2106304 25.8793395,13.1901225 25.7530937,13.2019038 L24.7980991,13.2019038 L24.7980991,13.9457747 L25.7405139,13.9457747 C25.8716345,13.9581918 26.0035751,13.9346846 26.1235288,13.8775348 C26.2280713,13.8102557 26.2895994,13.6883909 26.2841221,13.5594581 C26.2919313,13.4349334 26.2288439,13.3174022 26.1235288,13.2602742 L26.1235288,13.2616841 Z M15.5779043,13.2019038 L15.5779043,13.8042192 L17.2809959,13.8042192 L17.2809959,14.4809782 L15.5792426,14.4809782 L15.5792426,15.1399722 L17.486823,15.1399722 L18.3730301,14.1682592 L17.5245624,13.2030317 L15.5792426,13.2030317 L15.5779043,13.2019038 Z M20.562184,15.5257248 L20.562184,12.8708558 L19.3711173,14.1770006 L20.562184,15.5257248 Z M22.3463752,13.1999299 L21.3346376,13.1999299 L21.3346376,14.0433407 L22.3372749,14.0433407 C22.4588082,14.0658271 22.5835114,14.0297685 22.6771216,13.9450723 C22.7707318,13.860376 22.823402,13.7359516 22.8206606,13.6059853 C22.8214636,13.3169528 22.6271458,13.2004938 22.3469105,13.2004938 L22.3463752,13.1999299 Z" id="Combined-Shape" fill="#FFFFFF"></path>
        </g>
    </g>
</svg>