<?xml version="1.0" encoding="UTF-8"?>
<svg width="28px" height="24px" viewBox="0 0 28 24" version="1.1" xmlns="http://www.w3.org/2000/svg" xmlns:xlink="http://www.w3.org/1999/xlink">
    <title>Group 9</title>
    <g id="Page-1" stroke="none" stroke-width="1" fill="none" fill-rule="evenodd">
        <g id="Group-9" fill-rule="nonzero">
            <path d="M16.27126,1.28254819 C15.7300897,0.414231666 14.8647943,0 14.0347111,0 C13.1694158,0 12.3026774,0.415741256 11.7981623,1.28254819 L0.432141554,19.6984215 C-0.722066594,21.5470662 0.575890833,24 2.66869043,24 L25.3260504,24 C27.4540765,24 28.7168074,21.5469152 27.5625992,19.6984215 L16.27126,1.28254819 Z M3.06598163,21.0193133 L13.9979837,3.20652143 L24.9299858,21.0193133 L3.06598163,21.0193133 Z" id="Shape" fill="#EE2736"></path>
            <path d="M14.4619002,16 L13.6098947,16 C12.9719545,16 12.6,16.336848 12.6,17.0630232 L12.6,17.8460677 C12.6,18.5175687 12.9200128,18.9090909 13.6098947,18.9090909 L14.4619002,18.9090909 C15.0998404,18.9090909 15.4717949,18.5722429 15.4717949,17.8460677 L15.4717949,17.0630232 C15.4198447,16.3915222 15.0998298,16 14.4619002,16 L14.4619002,16 Z" id="Shape" fill="#EF2636"></path>
            <path d="M12.6044512,9.38468032 L12.7981424,13.9218454 C12.7981424,14.3371231 13.13805,14.5454545 13.7210001,14.5454545 L14.355246,14.5454545 C14.9382058,14.5454545 15.2781037,14.337137 15.2781037,13.9218454 L15.4717949,9.38468032 C15.4717949,8.96940262 15.1793622,8.72727273 14.5963829,8.72727273 L13.477909,8.72727273 C12.896845,8.72727273 12.5569472,8.96940954 12.6043929,9.38468032 L12.6044512,9.38468032 Z" id="Shape" fill="#EF2636"></path>
        </g>
    </g>
</svg>