<?xml version="1.0" encoding="UTF-8"?>
<svg width="39px" height="23px" viewBox="0 0 39 23" version="1.1" xmlns="http://www.w3.org/2000/svg" xmlns:xlink="http://www.w3.org/1999/xlink">
    <title>Group 5</title>
    <g id="Page-1" stroke="none" stroke-width="1" fill="none" fill-rule="evenodd">
        <g id="Group-5">
            <rect id="Rectangle" fill="#000066" x="0" y="0" width="39" height="23" rx="3.5"></rect>
            <g id="Group" transform="translate(6.500000, 3.696429)">
                <g id="Group-2" transform="translate(-0.000000, 0.000000)">
                    <path d="M15.4375,7.80369475 C15.4375,12.1136764 11.9819113,15.6071429 7.71893297,15.6071429 C3.45583265,15.6071429 0,12.1136764 0,7.80369475 C0,3.49383644 3.45583265,0 7.71893297,0 C11.9819113,0 15.4375,3.49383644 15.4375,7.80369475" id="Fill-333" fill="#CC0000"></path>
                    <path d="M18.1937213,0 C16.1761812,0 14.3385099,0.764966553 12.9528544,2.01989153 C12.6709614,2.27566142 12.4078201,2.55190277 12.1649109,2.84602581 L13.742155,2.84602581 C13.9575533,3.10820845 14.1560505,3.38383319 14.3372762,3.67253006 L11.5696663,3.67253006 C11.4041081,3.93779575 11.2536006,4.21342048 11.119871,4.49903431 L14.7868247,4.49903431 C14.9121654,4.76651979 15.0224552,5.04202121 15.1174477,5.32516859 L10.7892481,5.32516859 C10.6991904,5.59425726 10.6231964,5.87000532 10.5625,6.15117955 L15.343949,6.15117955 C15.4584334,6.68393072 15.5193766,7.23666006 15.5193766,7.80369475 C15.5193766,8.67003201 15.3781216,9.50393558 15.1174477,10.2827142 L10.7892481,10.2827142 C10.8842405,10.5656149 10.9945304,10.8414863 11.1196243,11.1093418 L14.7868247,11.1093418 C14.6528484,11.3942157 14.5030812,11.670087 14.336536,11.9357227 L11.5696663,11.9357227 C11.7501518,12.2235563 11.9490191,12.499551 12.1649109,12.7613637 L13.7416615,12.7613637 C13.4992458,13.0557334 13.2358578,13.3319747 12.9531012,13.5877446 C14.3386333,14.8426696 16.1761812,15.6071429 18.1937213,15.6071429 C22.5050196,15.6071429 26,12.1136764 26,7.80369475 C26,3.4942064 22.5050196,0 18.1937213,0" id="Fill-334" fill="#FF9900"></path>
                </g>
                <g id="Group-3" transform="translate(0.812500, 5.750000)">
                    <path d="M5.34794413,2.73927156 C5.26122526,2.72957753 5.22297755,2.72650382 5.16344102,2.72650382 C4.69508697,2.72650382 4.45826388,2.8844455 4.45826388,3.19642762 C4.45826388,3.38853483 4.57384894,3.51065591 4.75426268,3.51065591 C5.0909147,3.51065591 5.33351103,3.1957183 5.34794413,2.73927156 L5.34794413,2.73927156 Z M5.94896241,4.11428634 L5.26411188,4.11428634 L5.27986802,3.79450171 C5.07106919,4.04701926 4.79239011,4.16760348 4.4138821,4.16760348 C3.96621549,4.16760348 3.65915132,3.82405667 3.65915132,3.32481435 C3.65915132,2.57329092 4.19305569,2.13505003 5.10967773,2.13505003 C5.20361314,2.13505003 5.32364841,2.14356186 5.4465703,2.15881222 C5.47206878,2.05690673 5.47880422,2.01363827 5.47880422,1.95866605 C5.47880422,1.7543822 5.33495434,1.67777575 4.94898923,1.67777575 C4.54474219,1.67375628 4.21133762,1.77270627 4.07434346,1.81692048 C4.08300332,1.76561308 4.18896631,1.12285189 4.18896631,1.12285189 C4.60055018,1.00392275 4.87213298,0.959472097 5.17775384,0.959472097 C5.88738119,0.959472097 6.26324313,1.27251819 6.2624012,1.86432663 C6.26384451,2.02309586 6.237023,2.21827679 6.19552785,2.47575957 C6.12384346,2.9226305 5.9698904,3.88103862 5.94896241,4.11428634 L5.94896241,4.11428634 Z" id="Fill-336" fill="#000066"></path>
                    <polyline id="Fill-337" fill="#000066" points="3.31335833 4.11428634 2.48694316 4.11428634 2.96058935 1.19756682 1.90348515 4.11428634 1.34047403 4.11428634 1.27083433 1.21388116 0.773373533 4.11428634 -3.23296945e-13 4.11428634 0.646001438 0.319784626 1.83420628 0.319784626 1.90601094 2.44372199 2.63091332 0.319784626 3.95238377 0.319784626 3.31335833 4.11428634"></polyline>
                    <path d="M18.3641935,2.73927156 C18.2774747,2.72957753 18.2397081,2.72650382 18.1802918,2.72650382 C17.7115769,2.72650382 17.4749944,2.8844455 17.4749944,3.19642762 C17.4749944,3.38853483 17.5900984,3.51065591 17.7709932,3.51065591 C18.1074047,3.51065591 18.3501213,3.1957183 18.3641935,2.73927156 L18.3641935,2.73927156 Z M18.9655727,4.11428634 L18.2809627,4.11428634 L18.2964783,3.79450171 C18.0876794,4.04701926 17.8091206,4.16760348 17.4308532,4.16760348 C16.9825852,4.16760348 16.6758818,3.82405667 16.6758818,3.32481435 C16.6758818,2.57329092 17.2100268,2.13505003 18.1264082,2.13505003 C18.2202234,2.13505003 18.3400181,2.14356186 18.4630603,2.15881222 C18.488679,2.05690673 18.4952942,2.01363827 18.4952942,1.95866605 C18.4952942,1.7543822 18.3514443,1.67777575 17.9654792,1.67777575 C17.5612322,1.67375628 17.2279479,1.77270627 17.0904726,1.81692048 C17.0996136,1.76561308 17.2058171,1.12285189 17.2058171,1.12285189 C17.6171604,1.00392275 17.8889838,0.959472097 18.1941235,0.959472097 C18.904232,0.959472097 19.2796128,1.27251819 19.2788912,1.86432663 C19.2803345,2.02309586 19.2537535,2.21827679 19.2120178,2.47575957 C19.140574,2.9226305 18.9862601,3.88103862 18.9655727,4.11428634 L18.9655727,4.11428634 Z" id="Fill-338" fill="#000066"></path>
                    <path d="M9.62098324,4.06735307 C9.39474442,4.1373392 9.21854035,4.16760348 9.02730179,4.16760348 C8.60501338,4.16760348 8.37444463,3.92903587 8.37444463,3.48961278 C8.36855111,3.35318711 8.43518392,2.99438994 8.48762418,2.66715746 C8.53549395,2.37881931 8.84604613,0.561307727 8.84604613,0.561307727 L9.66716916,0.561307727 L9.57130933,1.02839425 L10.0674471,1.02839425 L9.9554703,1.77010543 L9.45764868,1.77010543 C9.36226995,2.35683042 9.226238,3.08790182 9.22467441,3.18484208 C9.22467441,3.34396596 9.31103245,3.41347922 9.50768342,3.41347922 C9.60185939,3.41347922 9.67474654,3.40402163 9.73043424,3.38439714 L9.62098324,4.06735307" id="Fill-339" fill="#000066"></path>
                    <path d="M12.1390778,4.04240868 C11.8569108,4.1271723 11.5849671,4.16854924 11.2964254,4.16760348 C10.3769168,4.16642128 9.89761763,3.69472418 9.89761763,2.79093362 C9.89761763,1.73617634 10.5072958,0.959472097 11.3351543,0.959472097 C12.0121869,0.959472097 12.444819,1.39428461 12.444819,2.07594012 C12.444819,2.30256752 12.4152311,2.52340216 12.3434265,2.83502961 L10.7079158,2.83502961 C10.6527092,3.28272809 10.9440173,3.46916075 11.4221137,3.46916075 C11.715707,3.46916075 11.9810354,3.40957796 12.2758315,3.27516202 L12.1390778,4.04240868 L12.1390778,4.04240868 Z M11.6774592,2.21307512 C11.68215,2.14864531 11.7644187,1.66217073 11.2949821,1.66217073 C11.033743,1.66217073 10.8464736,1.8581792 10.7705795,2.21307512 L11.6774592,2.21307512 L11.6774592,2.21307512 Z" id="Fill-340" fill="#000066"></path>
                    <path d="M6.4444988,2.00406247 C6.4444988,2.39406967 6.63694011,2.66325621 7.07354134,2.86553033 C7.4080284,3.02028008 7.46010783,3.06603115 7.46010783,3.20612164 C7.46010783,3.39822886 7.31240912,3.48547509 6.98561972,3.48547509 C6.73893401,3.48547509 6.50968829,3.44740831 6.24520176,3.36335401 C6.24520176,3.36335401 6.13683324,4.04382732 6.13166138,4.07633777 C6.31941194,4.11629607 6.48683589,4.15353532 6.99151323,4.16760348 C7.86327239,4.16760348 8.26595584,3.84131676 8.26595584,3.13613551 C8.26595584,2.71219922 8.09756969,2.46334649 7.68358031,2.27608628 C7.33730622,2.1199179 7.29725437,2.08492483 7.29725437,1.94093308 C7.29725437,1.77412491 7.43472964,1.68888841 7.70162168,1.68888841 C7.86387377,1.68888841 8.08530155,1.70591207 8.29542341,1.73511237 L8.41293289,1.01940955 C8.19908248,0.985953337 7.87457831,0.959472097 7.68574527,0.959472097 C6.76154586,0.959472097 6.4414919,1.43388825 6.4444988,2.00406247" id="Fill-341" fill="#000066"></path>
                    <path d="M16.1576133,1.04092556 C16.3870996,1.04092556 16.6014311,1.09956259 16.8959866,1.24580051 L17.0312969,0.422281214 C16.9098183,0.375466163 16.4839216,0.10107795 16.1230942,0.10107795 C15.5703065,0.10107795 15.1024335,0.37109203 14.7739603,0.81571679 C14.2943003,0.659666621 14.0969277,0.975077114 13.8554138,1.28954185 L13.6407215,1.33872129 C13.6569587,1.23527895 13.6717526,1.13254592 13.6670619,1.02839425 L12.9078809,1.02839425 C12.8044437,1.98372866 12.6207825,2.95100326 12.4770529,3.90669232 L12.4394066,4.11428634 L13.2660623,4.11428634 C13.4040187,3.23307576 13.4794316,2.66904898 13.525377,2.28696251 L13.8366508,2.11743528 C13.8834381,1.94708051 14.028611,1.88986212 14.3206407,1.89683709 C14.2825133,2.09804723 14.2618258,2.31001537 14.2618258,2.52931315 C14.2618258,3.53902867 14.8167785,4.16760348 15.7058573,4.16760348 C15.9349828,4.16760348 16.131754,4.13804852 16.4364127,4.05647684 L16.5812248,3.19181705 C16.3072364,3.32410503 16.082922,3.38640688 15.8795356,3.38640688 C15.399154,3.38640688 15.1084473,3.03777661 15.1084473,2.46192785 C15.1084473,1.62623191 15.5404781,1.04092556 16.1576133,1.04092556" id="Fill-342" fill="#000066"></path>
                    <path d="M23.1530957,0.319784626 L22.9694345,1.41603706 C22.7439173,1.12391587 22.5012007,0.912302387 22.1807859,0.912302387 C21.7639099,0.912302387 21.3844397,1.22298409 21.1359499,1.68049481 C20.7899163,1.60991757 20.4323363,1.48992445 20.4323363,1.48992445 L20.4320957,1.49287995 C20.4596389,1.23717046 20.4713057,1.08159318 20.4685393,1.02839425 L19.7094786,1.02839425 C19.6064022,1.98372866 19.4225005,2.95100326 19.2788912,3.90669232 L19.240884,4.11428634 L20.0677803,4.11428634 C20.1793962,3.40213011 20.2646718,2.81008523 20.3275761,2.34122541 C20.6102242,2.0901265 20.7516686,1.87177448 21.036602,1.88596086 C20.9101921,2.18647566 20.8364631,2.53238686 20.8364631,2.88728278 C20.8364631,3.65843069 21.2331327,4.16760348 21.8340307,4.16760348 C22.1368852,4.16760348 22.3692581,4.06487045 22.5958578,3.82701216 L22.5568884,4.1140499 L23.3386812,4.1140499 L23.9680846,0.319784626 L23.1530957,0.319784626 L23.1530957,0.319784626 Z M22.1198061,3.40142079 C21.8386012,3.40142079 21.6961946,3.19642762 21.6961946,2.79306158 C21.6961946,2.18647566 21.962365,1.75651015 22.3370242,1.75651015 C22.6209954,1.75651015 22.7749485,1.96883296 22.7749485,2.3608499 C22.7749485,2.97263749 22.5043279,3.40142079 22.1198061,3.40142079 L22.1198061,3.40142079 Z" id="Fill-343" fill="#000066"></path>
                    <polyline id="Fill-344" fill="#FFFFFF" points="3.55102336 3.88907757 2.72484874 3.88907757 3.19837465 0.972358058 2.141511 3.88907757 1.57825933 3.88907757 1.50873991 0.989263493 1.01115883 3.88907757 0.237785299 3.88907757 0.883786737 0.0949305192 2.07199158 0.0949305192 2.10518771 2.44372199 2.90694633 0.0949305192 4.19016907 0.0949305192 3.55102336 3.88907757"></polyline>
                    <path d="M5.58572943,2.51453567 C5.49913084,2.5046052 5.46088313,2.50188615 5.4013466,2.50188615 C4.93299255,2.50188615 4.69604918,2.65959139 4.69604918,2.97133707 C4.69604918,3.16320785 4.81175452,3.28603825 4.99228853,3.28603825 C5.32882028,3.28603825 5.57141661,2.97110063 5.58572943,2.51453567 L5.58572943,2.51453567 Z M6.18662743,3.88907757 L5.50213773,3.88907757 L5.51777359,3.56952938 C5.30897476,3.82192871 5.03029569,3.94263115 4.65178768,3.94263115 C4.20400079,3.94263115 3.8970569,3.59861146 3.8970569,3.09948736 C3.8970569,2.34784572 4.43108154,1.91019593 5.34770358,1.91019593 C5.44139844,1.91019593 5.56143371,1.91858953 5.68447588,1.93419455 C5.70997435,1.83205262 5.7167098,1.78866595 5.7167098,1.73345729 C5.7167098,1.52929165 5.57285992,1.4532763 5.18689481,1.4532763 C4.78252749,1.44854751 4.44924319,1.5474975 4.31212876,1.5915935 C4.32090889,1.54052253 4.42675161,0.897761348 4.42675161,0.897761348 C4.83845575,0.779068644 5.11003856,0.734263331 5.41565942,0.734263331 C6.12516649,0.734263331 6.50090816,1.04766409 6.50030678,1.63923609 C6.50162981,1.79776887 6.47504885,1.99389556 6.43343342,2.25066902 C6.36162876,2.6971853 6.2076757,3.65618452 6.18662743,3.88907757 L6.18662743,3.88907757 Z" id="Fill-345" fill="#FFFFFF"></path>
                    <path d="M17.2689619,0.197072448 L17.1336516,1.02047353 C16.838615,0.874708482 16.6248849,0.81571679 16.3956392,0.81571679 C15.7787445,0.81571679 15.3459921,1.40173246 15.3459921,2.23754662 C15.3459921,2.81339539 15.636819,3.16131633 16.1172006,3.16131633 C16.3207073,3.16131633 16.5455028,3.09948736 16.8188898,2.9667265 L16.6737169,3.8313863 C16.3695393,3.91283976 16.1726478,3.94263115 15.9436426,3.94263115 C15.0539624,3.94263115 14.4998517,3.31393812 14.4998517,2.30445904 C14.4998517,0.948004774 15.2658884,-1.02140518e-14 16.3608795,-1.02140518e-14 C16.7217069,-1.02140518e-14 17.1478442,0.150257397 17.2689619,0.197072448" id="Fill-346" fill="#FFFFFF"></path>
                    <path d="M18.6018586,2.51453567 C18.5157411,2.5046052 18.4773731,2.50188615 18.4179568,2.50188615 C17.9498433,2.50188615 17.7127797,2.65959139 17.7127797,2.97133707 C17.7127797,3.16320785 17.8283648,3.28603825 18.0087785,3.28603825 C18.34519,3.28603825 18.5880268,2.97110063 18.6018586,2.51453567 L18.6018586,2.51453567 Z M19.2032377,3.88907757 L18.518748,3.88907757 L18.5342636,3.56952938 C18.3254647,3.82192871 18.0467856,3.94263115 17.6686385,3.94263115 C17.2203705,3.94263115 16.9137874,3.59861146 16.9137874,3.09948736 C16.9137874,2.34784572 17.447331,1.91019593 18.3641935,1.91019593 C18.4578884,1.91019593 18.5776831,1.91858953 18.700605,1.93419455 C18.7262238,1.83205262 18.7329592,1.78866595 18.7329592,1.73345729 C18.7329592,1.52929165 18.5894702,1.4532763 18.2032645,1.4532763 C17.799258,1.44854751 17.466094,1.5474975 17.328739,1.5915935 C17.3373989,1.54052253 17.4433619,0.897761348 17.4433619,0.897761348 C17.855066,0.779068644 18.1264082,0.734263331 18.4320291,0.734263331 C19.1415362,0.734263331 19.5176387,1.04766409 19.5166765,1.63923609 C19.5183603,1.79776887 19.4915388,1.99389556 19.4499234,2.25066902 C19.3783593,2.6971853 19.2244062,3.65618452 19.2032377,3.88907757 L19.2032377,3.88907757 Z" id="Fill-347" fill="#FFFFFF"></path>
                    <path d="M9.85864827,3.84226252 C9.63265,3.91224866 9.45620537,3.94263115 9.26520736,3.94263115 C8.84279868,3.94263115 8.61210965,3.70394533 8.61210965,3.26499512 C8.60633641,3.12809656 8.67308949,2.76989049 8.72565003,2.44230336 C8.77315898,2.15372877 9.08383142,0.336453621 9.08383142,0.336453621 L9.90519501,0.336453621 L9.80909463,0.803421928 L10.2307817,0.803421928 L10.118444,1.54489667 L9.69543398,1.54489667 C9.60005525,2.13221276 9.4640233,2.86281127 9.46233944,2.95975153 C9.46233944,3.11934829 9.5490583,3.18838867 9.74546872,3.18838867 C9.83964469,3.18838867 9.91241156,3.17928574 9.96833982,3.15918837 L9.85864827,3.84226252" id="Fill-348" fill="#FFFFFF"></path>
                    <path d="M12.377224,3.81779102 C12.0949366,3.90279107 11.8223916,3.94286759 11.5342107,3.94263115 C10.6145818,3.94204005 10.1356435,3.46975185 10.1356435,2.56607951 C10.1356435,1.51096758 10.7452013,0.734263331 11.5724584,0.734263331 C12.2502127,0.734263331 12.6826043,1.16907585 12.6826043,1.85155889 C12.6826043,2.07771342 12.6525353,2.29842983 12.5815726,2.61017551 L10.9458214,2.61017551 C10.8903743,3.05787398 11.1820431,3.24466131 11.6596584,3.24466131 C11.9534923,3.24466131 12.2187004,3.18484208 12.5138573,3.05007148 L12.377224,3.81779102 L12.377224,3.81779102 Z M11.9154851,1.98786635 C11.9199353,1.92331833 12.0025648,1.43708019 11.5332485,1.43708019 C11.2717689,1.43708019 11.0844994,1.63344332 11.0083648,1.98786635 L11.9154851,1.98786635 L11.9154851,1.98786635 Z" id="Fill-349" fill="#FFFFFF"></path>
                    <path d="M6.68216382,1.7788537 C6.68216382,2.16957022 6.87484569,2.43816566 7.31156719,2.64067622 C7.64605425,2.79530775 7.69789313,2.84105883 7.69789313,2.98126754 C7.69789313,3.17361119 7.5503147,3.26038454 7.22328474,3.26038454 C6.97683958,3.26038454 6.74747359,3.22279064 6.48286678,3.13897278 C6.48286678,3.13897278 6.37461854,3.81897321 6.36956696,3.85101079 C6.55719724,3.89144197 6.72474146,3.92832655 7.22917826,3.94263115 C8.10117796,3.94263115 8.50386141,3.61646266 8.50386141,2.9112814 C8.50386141,2.48710867 8.33523471,2.23837416 7.92136561,2.05158684 C7.57497124,1.89494557 7.53515995,1.86030716 7.53515995,1.71607897 C7.53515995,1.5492708 7.67251493,1.46344321 7.93964753,1.46344321 C8.10153879,1.46344321 8.32320713,1.48117618 8.53320871,1.51025826 L8.65083847,0.794673661 C8.43686778,0.76145389 8.11260417,0.734263331 7.92365085,0.734263331 C6.99921089,0.734263331 6.67939748,1.20879771 6.68216382,1.7788537" id="Fill-350" fill="#FFFFFF"></path>
                    <path d="M23.5764665,3.88907757 L22.7949143,3.88907757 L22.8336431,3.60192162 C22.6069231,3.83989812 22.3746705,3.94263115 22.071816,3.94263115 C21.4713991,3.94263115 21.0741281,3.43404947 21.0741281,2.66207401 C21.0741281,1.63568949 21.6900606,0.770556817 22.4185712,0.770556817 C22.738986,0.770556817 22.9815823,0.899179986 23.2075806,1.19141939 L23.390881,0.0949305192 L24.2057496,0.0949305192 L23.5764665,3.88907757 L23.5764665,3.88907757 Z M22.3574711,3.17609381 C22.742474,3.17609381 23.0126135,2.74754694 23.0126135,2.13635045 C23.0126135,1.74421529 22.8587807,1.53118317 22.5748095,1.53118317 C22.20003,1.53118317 21.9339799,1.96126689 21.9339799,2.56808925 C21.9339799,2.97192817 22.0765068,3.17609381 22.3574711,3.17609381 L22.3574711,3.17609381 Z" id="Fill-351" fill="#FFFFFF"></path>
                    <path d="M19.9475045,0.803421928 C19.8441875,1.75851989 19.6604061,2.7257945 19.5166765,3.68160178 L19.4790301,3.88907757 L20.3054453,3.88907757 C20.6010833,2.00205273 20.6721663,1.63379798 21.1359499,1.67978549 C21.2096789,1.29356132 21.3471542,0.955334403 21.4495089,0.784861416 C21.1034754,0.713929521 20.9101921,0.906154956 20.6568913,1.27145421 C20.6770976,1.11339431 20.7135412,0.960063196 20.7066854,0.803421928 L19.9475045,0.803421928" id="Fill-352" fill="#FFFFFF"></path>
                    <path d="M13.146027,0.803421928 C13.042229,1.75851989 12.858207,2.7257945 12.7147179,3.68160178 L12.6771919,3.88907757 L13.5038476,3.88907757 C13.7996058,2.00205273 13.8704483,1.63379798 14.3335102,1.67978549 C14.4077204,1.29356132 14.5454362,0.955334403 14.6475504,0.784861416 C14.3018777,0.713929521 14.1082336,0.906154956 13.8554138,1.27145421 C13.8753796,1.11339431 13.9120637,0.960063196 13.9048472,0.803421928 L13.146027,0.803421928" id="Fill-353" fill="#FFFFFF"></path>
                </g>
            </g>
        </g>
    </g>
</svg>