<?xml version="1.0" encoding="UTF-8"?>
<svg width="39px" height="23px" viewBox="0 0 39 23" version="1.1" xmlns="http://www.w3.org/2000/svg" xmlns:xlink="http://www.w3.org/1999/xlink">
    <title>Group 4</title>
    <g id="Page-1" stroke="none" stroke-width="1" fill="none" fill-rule="evenodd">
        <g id="Group-4">
            <rect id="Rectangle" fill="#26337A" x="0" y="0" width="39" height="23" rx="3.5"></rect>
            <polyline id="Fill-3" fill="#FFFFFE" points="16.25 15.0363378 17.5122606 7.39285714 19.5299388 7.39285714 18.2677936 15.0363378 16.25 15.0363378"></polyline>
            <path d="M25.554304,7.71355079 C25.1553613,7.56014612 24.5279239,7.39285714 23.7463102,7.39285714 C21.7514814,7.39285714 20.3472771,8.43011652 20.3356216,9.9153988 C20.3229274,11.0140652 21.337652,11.6267808 22.1026479,11.9919494 C22.8888777,12.3662613 23.1530315,12.6057938 23.1499157,12.9404847 C23.1444918,13.452398 22.5223628,13.6869637 21.94224,13.6869637 C21.1344301,13.6869637 20.7052523,13.5714869 20.0416942,13.2861249 L19.7821564,13.1644397 L19.5,14.8753702 C19.9704915,15.0882629 20.8426954,15.2730483 21.747904,15.2827561 C23.8679432,15.2827561 25.2454898,14.2580264 25.261646,12.6719418 C25.2689163,11.8007297 24.7312612,11.1403785 23.566861,10.5951655 C22.8617584,10.2407205 22.4290031,10.005929 22.4339654,9.64719461 C22.434427,9.32954874 22.799557,8.98943964 23.5898259,8.98943964 C24.2498065,8.97905463 24.7275683,9.1278312 25.0998533,9.28315483 L25.2810335,9.37052438 L25.554304,7.71355079" id="Fill-4" fill="#FFFFFE"></path>
            <path d="M28.3115315,12.3186257 C28.4787481,11.8792946 29.1153023,10.1821355 29.1153023,10.1821355 C29.1035313,10.2023412 29.2815957,9.73941802 29.3834951,9.45292718 L29.5196688,10.1121496 C29.5196688,10.1121496 29.9068405,11.936525 29.9865829,12.3186257 L28.3115315,12.3186257 L28.3115315,12.3186257 Z M30.8007398,7.39285714 L29.241436,7.39285714 C28.7577887,7.39285714 28.3957745,7.52808804 28.1838975,8.02645567 L25.1875,15.0312582 L27.3067314,15.0312582 C27.3067314,15.0312582 27.652474,14.0889314 27.730947,13.8821342 C27.962096,13.8821342 30.0213187,13.886085 30.3152461,13.886085 C30.3757164,14.1528218 30.5609357,15.0312582 30.5609357,15.0312582 L32.4336697,15.0312582 L30.8007398,7.39285714 L30.8007398,7.39285714 Z" id="Fill-5" fill="#FFFFFE"></path>
            <g id="Group" transform="translate(7.312500, 7.392857)">
                <path d="M7.08864681,0.0051925053 L5.11378254,5.21621022 L4.90225176,4.15693914 C4.53423667,2.93647463 3.38864691,1.61362746 2.10722969,0.950792873 L3.91395411,7.63557905 L6.04934174,7.63433736 L9.22680407,0.0051925053 L7.08864681,0.0051925053" id="Fill-6" fill="#FFFFFE"></path>
                <path d="M3.28051579,-2.22520415e-14 L0.0267731264,-2.22520415e-14 L9.59787805e-14,0.158371412 C2.53179146,0.791518417 4.20695828,2.31980818 4.90225176,4.15693914 L4.19518734,0.644886583 C4.07320805,0.160516142 3.71869493,0.0169320825 3.28051579,-2.22520415e-14" id="Fill-7" fill="#EC982D"></path>
            </g>
        </g>
    </g>
</svg>